<svg xmlns="http://www.w3.org/2000/svg" viewBox="0 0 800 30">
  <defs>
    <style>
      .cls-1 {
        fill: #4d4d4d;
      }
    </style>
  </defs>
  <title>Pen Logo</title>
      <rect class="cls-1" x="89.9" y="14.46" width="2.18" height="0.94" rx="0.3"/>
      <path class="cls-1" d="M124.6,20.6h19.86c.54,0,1-.26,1-.59v-.93c0-.26-.34-.46-.77-.46s-.77.2-.77.46v.6H126a1,1,0,0,0-.64-.2c-.43,0-.77.2-.77.46Z"/>
      <path class="cls-1" d="M103.55,13H100.4c-.43,0-.78.21-.78.47v.72H93.78c-.23,0-.41.11-.41.25v1.07c0,.14.18.25.41.25h5.84v.72c0,.26.35.47.78.47h3.15Z"/>
      <rect class="cls-1" x="104.98" y="12.13" width="40.42" height="5.6" rx="0.6"/>
      <path class="cls-1" d="M149.19,10.45h3.92a0,0,0,0,1,0,0v8.39a.58.58,0,0,1-.58.58h-2.75a.58.58,0,0,1-.58-.58V10.45a0,0,0,0,1,0,0Z" transform="translate(136.22 166.09) rotate(-90)"/>
</svg>
